<?xml version='1.0' encoding='utf-8'?>
<!DOCTYPE svg>
<!-- Generator: Adobe Illustrator 15.1.0, SVG Export Plug-In . SVG Version: 6.00 Build 0)  -->
<svg xmlns="http://www.w3.org/2000/svg" id="Layer_1" enable-background="new 0 0 50.4 50.4" xml:space="preserve" x="0px" y="0px" viewBox="0 0 50.4 50.4" version="1.1" height="0.7in" gorn="0" width="0.7in"  xmlns:xml="http://www.w3.org/XML/1998/namespace">
    <desc>
        <referenceFile>SparkFun_CSS811_Breakout_breadboard.svg</referenceFile>
    </desc>
    <desc >Fritzing breadboard generated by brd2svg</desc>
    <g id="breadboard" gorn="0.1" >
        <g id="icon" gorn="0.1.0" >
            <path d="M0,0h50.4v50.4H0V0 M43.2,2.52c-2.585-0.001-4.681,2.094-4.682,4.679c-0.001,2.584,2.094,4.681,4.679,4.681c0.001,0,0.002,0,0.003,0c2.585,0,4.68-2.095,4.68-4.68S45.785,2.52,43.2,2.52z M43.2,38.52c-2.585,0-4.68,2.095-4.68,4.68s2.095,4.68,4.68,4.68s4.68-2.095,4.68-4.68S45.785,38.52,43.2,38.52z M3.6,16.56c-0.796-0.001-1.441,0.644-1.441,1.438c-0.001,0.795,0.644,1.44,1.438,1.441c0.001,0,0.002,0,0.003,0c0.795,0,1.439-0.645,1.439-1.44C5.04,17.205,4.395,16.56,3.6,16.56L3.6,16.56z M3.6,9.36c-0.796,0-1.44,0.645-1.44,1.439c0,0.796,0.645,1.44,1.44,1.44c0.795,0,1.439-0.645,1.439-1.44C5.04,10.005,4.395,9.36,3.6,9.36z M3.6,2.16c-0.796,0-1.44,0.645-1.441,1.439c0,0.795,0.645,1.44,1.439,1.44c0.001,0,0.001,0,0.002,0C4.395,5.04,5.04,4.395,5.04,3.6C5.04,2.804,4.395,2.16,3.6,2.16z M3.6,45.36c-0.796,0-1.44,0.645-1.44,1.439c0,0.796,0.645,1.44,1.44,1.44c0.795,0,1.439-0.645,1.439-1.44C5.04,46.005,4.395,45.36,3.6,45.36L3.6,45.36z M3.6,38.16c-0.796,0-1.44,0.645-1.44,1.44c0,0.795,0.645,1.439,1.44,1.439c0.795,0,1.439-0.645,1.439-1.439C5.04,38.804,4.395,38.16,3.6,38.16L3.6,38.16z M3.6,30.96c-0.796,0-1.44,0.645-1.44,1.44c0,0.795,0.645,1.439,1.44,1.439c0.795,0,1.439-0.645,1.439-1.439C5.04,31.604,4.395,30.96,3.6,30.96L3.6,30.96z M3.6,23.76c-0.796,0-1.441,0.644-1.441,1.439c-0.001,0.795,0.644,1.44,1.438,1.441c0.001,0,0.002,0,0.003,0c0.795,0,1.439-0.646,1.439-1.44S4.395,23.76,3.6,23.76L3.6,23.76z M32.4,41.925c-0.705-0.001-1.276,0.569-1.277,1.273c-0.001,0.705,0.569,1.276,1.274,1.277c0.001,0,0.002,0,0.003,0c0.704,0.001,1.276-0.569,1.277-1.273c0-0.705-0.57-1.276-1.274-1.277C32.402,41.925,32.401,41.925,32.4,41.925z M25.2,41.925c-0.704-0.001-1.276,0.569-1.277,1.273c-0.001,0.705,0.569,1.276,1.274,1.277c0.001,0,0.002,0,0.003,0c0.704,0.001,1.276-0.569,1.277-1.273c0.001-0.705-0.569-1.276-1.274-1.277C25.202,41.925,25.201,41.925,25.2,41.925z"  fill="#E6321E"/>
            <g >
                <title >layer 21</title>
                <g >
                    <title >text:SCL</title>
                    <g transform="matrix(1, 0, 0, 1, 25.2, 42.48)" >
                        <g >
                            <g transform="rotate(270)" >
                                <g >
                                    <g transform="matrix(0 1 -1 0 16.28 -17.2803)" >
                                        <text font-family="'OCRA'" font-size="3.3408"  fill="#FFFFFF">SCL</text>
                                    </g>
                                </g>
                            </g>
                        </g>
                    </g>
                </g>
                <g >
                    <title >text:SDA</title>
                    <g transform="matrix(1, 0, 0, 1, 32.4, 42.48)" >
                        <g >
                            <g transform="rotate(270)" >
                                <g >
                                    <g transform="matrix(0 1 -1 0 9.0798 -24.4803)" >
                                        <text font-family="'OCRA'" font-size="3.3408"  fill="#FFFFFF">SDA</text>
                                    </g>
                                </g>
                            </g>
                        </g>
                    </g>
                </g>
                <g >
                    <title >text:3.3V</title>
                    <g transform="matrix(1, 0, 0, 1, 39.6, 42.48)" >
                        <g >
                            <g transform="rotate(270)" >
                                <g >
                                    <g transform="matrix(0 1 -1 0 1.8806 -31.6803)" >
                                        <text font-family="'OCRA'" font-size="3.3408"  fill="#FFFFFF">3.3V</text>
                                    </g>
                                </g>
                            </g>
                        </g>
                    </g>
                </g>
                <g >
                    <title >text:GND</title>
                    <g transform="matrix(1, 0, 0, 1, 46.8, 42.48)" >
                        <g >
                            <g transform="rotate(270)" >
                                <g >
                                    <g transform="matrix(0 1 -1 0 -4.3196 -38.8803)" >
                                        <text font-family="'OCRA'" font-size="3.3408"  fill="#FFFFFF">GND</text>
                                    </g>
                                </g>
                            </g>
                        </g>
                    </g>
                </g>
                <g >
                    <title >text:CCS811</title>
                    <g transform="matrix(-1.346898e-010 1 -1 -1.346898e-010 45.9246 15.9485)" >
                        <text font-family="'OCRA'" font-size="3.9672"  fill="#FFFFFF">CCS811</text>
                    </g>
                </g>
                <g >
                    <title >text:NTC</title>
                    <g transform="matrix(1, 0, 0, 1, 49.32, 21.24)" >
                        <g >
                            <g transform="rotate(270)" >
                                <g >
                                    <g transform="matrix(0 1 -1 0 -28.0801 -20.1601)" >
                                        <text font-family="'OCRA'" font-size="3.3408"  fill="#FFFFFF">NTC</text>
                                    </g>
                                </g>
                            </g>
                        </g>
                    </g>
                </g>
                <g >
                    <title >text:Air Quality</title>
                    <g transform="matrix(-1.346898e-010 1 -1 -1.346898e-010 42.6199 12.1848)" >
                        <text font-family="'OCRA'" font-size="3.3408"  fill="#FFFFFF">Air Quality</text>
                    </g>
                </g>
                <g >
                    <title >text:!WAK</title>
                    <g transform="matrix(1, 0, 0, 1, 18, 42.48)" >
                        <g >
                            <g transform="rotate(270)" >
                                <g >
                                    <g transform="matrix(0 1 -1 0 23.4802 -11.0803)" >
                                        <text font-family="'OCRA'" font-size="3.3408"  fill="#FFFFFF">!WAK</text>
                                    </g>
                                </g>
                            </g>
                        </g>
                    </g>
                </g>
                <g >
                    <title >text:!INT</title>
                    <g transform="matrix(1, 0, 0, 1, 10.8, 42.48)" >
                        <g >
                            <g transform="rotate(270)" >
                                <g >
                                    <g transform="matrix(0 1 -1 0 30.6804 -3.8803)" >
                                        <text font-family="'OCRA'" font-size="3.3408"  fill="#FFFFFF">!INT</text>
                                    </g>
                                </g>
                            </g>
                        </g>
                    </g>
                </g>
                <g >
                    <title >text:!RST</title>
                    <g transform="matrix(1, 0, 0, 1, 3.6, 42.48)" >
                        <g >
                            <g transform="rotate(270)" >
                                <g >
                                    <g transform="matrix(0 1 -1 0 37.8806 3.3197)" >
                                        <text font-family="'OCRA'" font-size="3.3408"  fill="#FFFFFF">!RST</text>
                                    </g>
                                </g>
                            </g>
                        </g>
                    </g>
                </g>
                <g >
                    <title >element:C2</title>
                    <g >
                        <title >package:0603</title>
                    </g>
                </g>
                <g >
                    <title >element:FD1</title>
                    <g >
                        <title >package:FIDUCIAL-1X2</title>
                    </g>
                </g>
                <g >
                    <title >element:FD2</title>
                    <g >
                        <title >package:FIDUCIAL-1X2</title>
                    </g>
                </g>
                <g >
                    <title >element:H2</title>
                    <g >
                        <title >package:STAND-OFF</title>
                    </g>
                </g>
                <g >
                    <title >element:H4</title>
                    <g >
                        <title >package:STAND-OFF</title>
                    </g>
                </g>
                <g >
                    <title >element:J2</title>
                    <g >
                        <title >package:1X03_NO_SILK</title>
                    </g>
                </g>
                <g >
                    <title >element:J8</title>
                    <g >
                        <title >package:1X04_NO_SILK</title>
                    </g>
                </g>
                <g >
                    <title >element:JP1</title>
                    <g >
                        <title >package:SMT-JUMPER_3_2-NC_TRACE_SILK</title>
                    </g>
                </g>
                <g >
                    <title >element:JP2</title>
                    <g >
                        <title >package:SMT-JUMPER_2_NO_SILK</title>
                    </g>
                </g>
                <g >
                    <title >element:LOGO1</title>
                    <g >
                        <title >package:SFE_LOGO_FLAME_.2</title>
                    </g>
                </g>
                <g >
                    <title >element:LOGO4</title>
                    <g >
                        <title >package:OSHW-LOGO-S</title>
                    </g>
                </g>
                <g >
                    <title >element:R1</title>
                    <g >
                        <title >package:0603</title>
                    </g>
                </g>
                <g >
                    <title >element:R2</title>
                    <g >
                        <title >package:0603</title>
                    </g>
                </g>
                <g >
                    <title >element:R6</title>
                    <g >
                        <title >package:0603</title>
                    </g>
                </g>
                <g >
                    <title >element:R10</title>
                    <g >
                        <title >package:0603</title>
                    </g>
                </g>
                <g >
                    <title >element:R12</title>
                    <g >
                        <title >package:AXIAL-0.1</title>
                        <line stroke="#FFFFFF" y2="43.2" x1="28.8" y1="41.04" x2="28.8" stroke-width="0.576" stroke-linecap="round"  fill="none"/>
                        <line stroke="#FFFFFF" y2="45.36" x1="28.8" y1="43.2" x2="28.8" stroke-width="0.576" stroke-linecap="round"  fill="none"/>
                        <line stroke="#FFFFFF" y2="43.2" x1="28.08" y1="43.2" x2="28.8" stroke-width="0.576" stroke-linecap="round"  fill="none"/>
                        <line stroke="#FFFFFF" y2="43.2" x1="28.8" y1="43.2" x2="29.52" stroke-width="0.576" stroke-linecap="round"  fill="none"/>
                    </g>
                </g>
                <g >
                    <title >element:R13</title>
                    <g >
                        <title >package:0603</title>
                    </g>
                </g>
                <g >
                    <title >element:R14</title>
                    <g >
                        <title >package:0603</title>
                    </g>
                </g>
                <g >
                    <title >element:U2</title>
                    <g >
                        <title >package:LGA10</title>
                        <line stroke="#FFFFFF" y2="31.153" x1="24.264" y1="19.247" x2="24.264" stroke-width="0.36" stroke-linecap="round"  fill="none"/>
                        <line stroke="#FFFFFF" y2="19.247" x1="33.336" y1="19.247" x2="24.264" stroke-width="0.36" stroke-linecap="round"  fill="none"/>
                        <line stroke="#FFFFFF" y2="19.247" x1="33.336" y1="31.153" x2="33.336" stroke-width="0.36" stroke-linecap="round"  fill="none"/>
                        <line stroke="#FFFFFF" y2="31.153" x1="24.264" y1="31.153" x2="33.336" stroke-width="0.36" stroke-linecap="round"  fill="none"/>
                        <circle cx="23.698" r="0.723"  fill="none" cy="18.68"/>
                    </g>
                </g>
            </g>
            <rect x="24.264" y="19.247" height="11.906" width="9.071" fill-opacity="0.15"  fill="#FFFFFF"/>
            <circle id="connector4pin" stroke="#9A916C" cx="3.6" stroke-width="1.224" r="2.052" gorn="0.1.0.3"  fill="none" cy="18"/>
            <circle id="connector5pin" stroke="#9A916C" cx="3.6" stroke-width="1.224" r="2.052" gorn="0.1.0.4"  fill="none" cy="10.8"/>
            <circle id="connector6pin" stroke="#9A916C" cx="3.6" stroke-width="1.224" r="2.052" gorn="0.1.0.5"  fill="none" cy="3.6"/>
            <circle id="connector7pin" stroke="#9A916C" cx="3.6" stroke-width="1.224" r="2.052" gorn="0.1.0.6"  fill="none" cy="46.8"/>
            <circle id="connector8pin" stroke="#9A916C" cx="3.6" stroke-width="1.224" r="2.052" gorn="0.1.0.7"  fill="none" cy="39.6"/>
            <circle id="connector9pin" stroke="#9A916C" cx="3.6" stroke-width="1.224" r="2.052" gorn="0.1.0.8"  fill="none" cy="32.4"/>
            <circle id="connector10pin" stroke="#9A916C" cx="3.6" stroke-width="1.224" r="2.052" gorn="0.1.0.9"  fill="none" cy="25.2"/>
            <circle id="connector24pin" stroke="#9A916C" cx="32.4" stroke-width="1.3884" r="1.97" gorn="0.1.0.10"  fill="none" cy="43.2"/>
            <circle id="connector25pin" stroke="#9A916C" cx="25.2" stroke-width="1.3884" r="1.97" gorn="0.1.0.11"  fill="none" cy="43.2"/>
        </g>
    </g>
    <g transform="matrix(1, 0, 0, 1, 28.431, 63.611)" >
        <g id="_x30_603-res_2_" gorn="0.2.0" >
            <g transform="matrix(-1, 0, 0, -1, 7.938, 2.834)" >
                <g >
                    <g >
                        <g >
                            <rect x="3.586" y="30.565" height="2.834" width="7.966"  fill="#333333"/>
                            <rect enable-background="new    " x="3.586" y="30.565" height="0.046" width="7.966" opacity="0.2"  fill="#FFFFFF"/>
                            <rect enable-background="new    " x="3.586" y="33.367" height="0.032" width="7.966" opacity="0.2" />
                        </g>
                        <g >
                            <path d="M10.396,30.565L10.396,30.565L10.396,30.565h-0.094l0,0c-0.08,0.251-0.135,0.796-0.135,1.075c0,0.291,0.049,1.41,0.135,1.673l0,0l0,0h1.223v-2.748H10.396z"  fill="#DCDCDC"/>
                            <path d="M4.831,30.671v-0.105H3.609v2.748h1.224c0.088-0.262,0.192-1.377,0.192-1.672C5.025,31.297,4.95,30.972,4.831,30.671z"  fill="#DCDCDC"/>
                            <path d="M11.532,33.421H10.31l-0.008-0.107h1.223L11.532,33.421z"  fill="#999999"/>
                            <path d="M3.615,33.422h1.224l-0.008-0.108H3.609L3.615,33.422z"  fill="#999999"/>
                            <rect enable-background="new    " x="3.609" y="30.565" height="0.046" width="1.224" opacity="0.5"  fill="#FFFFFF"/>
                            <rect enable-background="new    " x="10.304" y="30.565" height="0.046" width="1.224" opacity="0.5"  fill="#FFFFFF"/>
                            <line y2="33.399" x1="4.349" y1="33.399" x2="4.349"  fill="none"/>
                        </g>
                    </g>
                </g>
            </g>
        </g>
    </g>
    <g transform="matrix(1, 0, 0, 1, 28.431, 63.611)" >
        <g id="_x30_603-res_1_" gorn="0.3.0" >
            <g transform="matrix(-1, 0, 0, -1, 7.938, 2.834)" >
                <g >
                    <g >
                        <g >
                            <rect x="3.586" y="50" height="2.834" width="7.966"  fill="#333333"/>
                            <rect enable-background="new    " x="3.586" y="50" height="0.046" width="7.966" opacity="0.2"  fill="#FFFFFF"/>
                            <rect enable-background="new    " x="3.586" y="52.802" height="0.032" width="7.966" opacity="0.2" />
                        </g>
                        <g >
                            <path d="M10.396,50L10.396,50L10.396,50h-0.094l0,0c-0.08,0.251-0.135,0.796-0.135,1.075c0,0.291,0.049,1.41,0.135,1.673l0,0l0,0h1.223V50H10.396z"  fill="#DCDCDC"/>
                            <path d="M4.831,50.105V50H3.609v2.748h1.224c0.088-0.262,0.192-1.377,0.192-1.672C5.025,50.731,4.95,50.406,4.831,50.105z"  fill="#DCDCDC"/>
                            <path d="M11.532,52.855H10.31l-0.008-0.107h1.223L11.532,52.855z"  fill="#999999"/>
                            <path d="M3.615,52.856h1.224l-0.008-0.108H3.609L3.615,52.856z"  fill="#999999"/>
                            <rect enable-background="new    " x="3.609" y="50" height="0.046" width="1.224" opacity="0.5"  fill="#FFFFFF"/>
                            <rect enable-background="new    " x="10.304" y="50" height="0.046" width="1.224" opacity="0.5"  fill="#FFFFFF"/>
                            <line y2="52.834" x1="4.349" y1="52.834" x2="4.349"  fill="none"/>
                        </g>
                    </g>
                </g>
            </g>
        </g>
    </g>
    <g transform="matrix(1, 0, 0, 1, 28.431, 63.611)" >
        <g id="_x30_603-res_3_" gorn="0.4.0" >
            <g transform="matrix(-1, 0, 0, -1, 7.938, 2.834)" >
                <g >
                    <g >
                        <g >
                            <rect x="8.898" y="55.645" height="7.966" width="2.834"  fill="#333333"/>
                            <rect enable-background="new    " x="11.686" y="55.645" height="7.966" width="0.046" opacity="0.2"  fill="#FFFFFF"/>
                            <rect enable-background="new    " x="8.898" y="55.645" height="7.966" width="0.032" opacity="0.2" />
                        </g>
                        <g >
                            <path d="M11.732,62.455L11.732,62.455L11.732,62.455v-0.093l0,0c-0.251-0.08-0.796-0.136-1.075-0.136c-0.291,0-1.41,0.049-1.673,0.136l0,0l0,0v1.222h2.748V62.455z"  fill="#DCDCDC"/>
                            <path d="M11.626,56.891h0.105v-1.222H8.984v1.223c0.262,0.088,1.377,0.193,1.672,0.193C11,57.085,11.325,57.01,11.626,56.891z"  fill="#DCDCDC"/>
                            <path d="M8.876,63.592v-1.223l0.107-0.007v1.222L8.876,63.592z"  fill="#999999"/>
                            <path d="M8.875,55.675v1.224l0.108-0.008v-1.222L8.875,55.675z"  fill="#999999"/>
                            <rect enable-background="new    " x="11.686" y="55.669" height="1.223" width="0.046" opacity="0.5"  fill="#FFFFFF"/>
                            <rect enable-background="new    " x="11.686" y="62.363" height="1.224" width="0.046" opacity="0.5"  fill="#FFFFFF"/>
                            <line y2="56.408" x1="8.898" y1="56.408" x2="8.898"  fill="none"/>
                        </g>
                    </g>
                </g>
            </g>
        </g>
    </g>
    <g transform="matrix(1, 0, 0, 1, 28.431, 63.611)" >
        <g id="_x30_603-res_4_" gorn="0.5.0" >
            <g transform="matrix(-1, 0, 0, -1, 7.938, 2.834)" >
                <g >
                    <g >
                        <g >
                            <rect x="2.181" y="55.645" height="7.967" width="2.834"  fill="#333333"/>
                            <rect enable-background="new    " x="4.969" y="55.645" height="7.967" width="0.046" opacity="0.2"  fill="#FFFFFF"/>
                            <rect enable-background="new    " x="2.181" y="55.645" height="7.967" width="0.032" opacity="0.2" />
                        </g>
                        <g >
                            <path d="M5.015,62.455L5.015,62.455L5.015,62.455v-0.093l0,0c-0.251-0.08-0.796-0.136-1.075-0.136c-0.291,0-1.41,0.049-1.673,0.136l0,0l0,0v1.223h2.748V62.455z"  fill="#DCDCDC"/>
                            <path d="M4.909,56.891h0.105v-1.222H2.267v1.223c0.262,0.088,1.377,0.193,1.672,0.193C4.283,57.085,4.609,57.01,4.909,56.891z"  fill="#DCDCDC"/>
                            <path d="M2.159,63.592v-1.223l0.107-0.007v1.223L2.159,63.592z"  fill="#999999"/>
                            <path d="M2.158,55.675v1.224l0.108-0.008v-1.222L2.158,55.675z"  fill="#999999"/>
                            <rect enable-background="new    " x="4.969" y="55.669" height="1.223" width="0.046" opacity="0.5"  fill="#FFFFFF"/>
                            <rect enable-background="new    " x="4.969" y="62.363" height="1.224" width="0.046" opacity="0.5"  fill="#FFFFFF"/>
                            <line y2="56.408" x1="2.181" y1="56.408" x2="2.181"  fill="none"/>
                        </g>
                    </g>
                </g>
            </g>
        </g>
    </g>
    <g transform="matrix(1, 0, 0, 1, 28.431, 63.611)" >
        <g id="_x30_603-res_5_" gorn="0.6.0" >
            <g transform="matrix(-1, 0, 0, -1, 7.938, 2.834)" >
                <g >
                    <g >
                        <g >
                            <rect x="15.023" y="43.059" height="7.967" width="2.834"  fill="#333333"/>
                            <rect enable-background="new    " x="17.811" y="43.059" height="7.967" width="0.046" opacity="0.2"  fill="#FFFFFF"/>
                            <rect enable-background="new    " x="15.023" y="43.059" height="7.967" width="0.032" opacity="0.2" />
                        </g>
                        <g >
                            <path d="M17.857,49.868L17.857,49.868L17.857,49.868v-0.093l0,0c-0.251-0.08-0.796-0.136-1.075-0.136c-0.291,0-1.41,0.049-1.673,0.136l0,0l0,0v1.223h2.748V49.868z"  fill="#DCDCDC"/>
                            <path d="M17.751,44.304h0.105v-1.222h-2.748v1.223c0.262,0.088,1.377,0.193,1.672,0.193C17.125,44.498,17.45,44.423,17.751,44.304z"  fill="#DCDCDC"/>
                            <path d="M15.001,51.005v-1.223l0.107-0.007v1.223L15.001,51.005z"  fill="#999999"/>
                            <path d="M15,43.088v1.224l0.108-0.008v-1.222L15,43.088z"  fill="#999999"/>
                            <rect enable-background="new    " x="17.811" y="43.082" height="1.223" width="0.046" opacity="0.5"  fill="#FFFFFF"/>
                            <rect enable-background="new    " x="17.811" y="49.776" height="1.224" width="0.046" opacity="0.5"  fill="#FFFFFF"/>
                            <line y2="43.821" x1="15.023" y1="43.821" x2="15.023"  fill="none"/>
                        </g>
                    </g>
                </g>
            </g>
        </g>
    </g>
    <g transform="matrix(1, 0, 0, 1, 28.431, 63.611)" >
        <g id="_x30_603-res_6_" gorn="0.7.0" >
            <g transform="matrix(-1, 0, 0, -1, 7.938, 2.834)" >
                <g >
                    <g >
                        <g >
                            <rect x="15.034" y="33.278" height="7.967" width="2.834"  fill="#333333"/>
                            <rect enable-background="new    " x="17.822" y="33.278" height="7.967" width="0.046" opacity="0.2"  fill="#FFFFFF"/>
                            <rect enable-background="new    " x="15.034" y="33.278" height="7.967" width="0.032" opacity="0.2" />
                        </g>
                        <g >
                            <path d="M17.868,40.088L17.868,40.088L17.868,40.088v-0.093l0,0c-0.251-0.08-0.796-0.136-1.075-0.136c-0.291,0-1.41,0.049-1.673,0.136l0,0l0,0v1.223h2.748V40.088z"  fill="#DCDCDC"/>
                            <path d="M17.762,34.523h0.105v-1.222H15.12v1.223c0.262,0.088,1.377,0.193,1.672,0.193C17.136,34.718,17.462,34.643,17.762,34.523z"  fill="#DCDCDC"/>
                            <path d="M15.012,41.225v-1.223l0.107-0.007v1.223L15.012,41.225z"  fill="#999999"/>
                            <path d="M15.011,33.308v1.224l0.108-0.008v-1.222L15.011,33.308z"  fill="#999999"/>
                            <rect enable-background="new    " x="17.822" y="33.302" height="1.223" width="0.046" opacity="0.5"  fill="#FFFFFF"/>
                            <rect enable-background="new    " x="17.822" y="39.996" height="1.224" width="0.046" opacity="0.5"  fill="#FFFFFF"/>
                            <line y2="34.041" x1="15.034" y1="34.041" x2="15.034"  fill="none"/>
                        </g>
                    </g>
                </g>
            </g>
        </g>
    </g>
    <g id="_x30_402-res_5_" gorn="0.8" >
        <g transform="matrix(-1, 0, 0, -1, 2.559, 5.67)" >
            <g >
                <g >
                    <g transform="matrix(1, 0, 0, 1, 10.275, 83.3789)" >
                        <g >
                            <g id="_x30_402-res_6_" gorn="0.8.0.0.0.0.0.0" >
                                <g transform="matrix(0, 1, -1, 0, 4.1105, -1.5595)" >
                                    <g >
                                        <g >
                                            <g >
                                                <g >
                                                    <g transform="matrix(-2.54711e-06, -1, 1, -2.54711e-06, -92.5375, -66.3468)" >
                                                        <g >
                                                            <rect x="-116.318" y="-10.61" height="4.977" width="1.771"  fill="#9F5B00"/>
                                                        </g>
                                                    </g>
                                                    <g transform="matrix(-2.54711e-06, -1, 1, -2.54711e-06, -93.8052, -67.6143)" >
                                                        <g >
                                                            <polygon enable-background="new    " points="-117.561,-4.427 -117.561,-9.401 -117.561,-9.401 " opacity="0.2" />
                                                        </g>
                                                    </g>
                                                </g>
                                                <g >
                                                    <path d="M-98.868,48.2L-98.868,48.2L-98.868,48.2L-98.868,48.2c0.01,0.283-0.013,1.592,0.01,1.771l0.689,0l0-1.771L-98.868,48.2z"  fill="#CCCCCC"/>
                                                    <path d="M-102.39,48.232l-0.805-0.03l0,1.771h0.781C-102.36,49.763-102.39,48.232-102.39,48.232z"  fill="#CCCCCC"/>
                                                    <g transform="matrix(-2.54711e-06, -1, 1, -2.54711e-06, -91.409, -70.0021)" >
                                                        <g >
                                                            <polygon enable-background="new    " points="-119.953,-10.999 -119.953,-11.788 -119.953,-11.788 " opacity="0.15" />
                                                        </g>
                                                    </g>
                                                    <g transform="matrix(-2.54711e-06, -1, 1, -2.54711e-06, -88.8815, -67.4752)" >
                                                        <g >
                                                            <polygon enable-background="new    " points="-115.704,-13.503 -115.704,-14.29 -115.704,-14.29 " opacity="0.5"  fill="#FFFFFF"/>
                                                        </g>
                                                    </g>
                                                    <g transform="matrix(-2.54711e-06, -1, 1, -2.54711e-06, -96.1915, -65.2182)" >
                                                        <g >
                                                            <polygon enable-background="new    " points="-115.156,-2.045 -115.156,-2.829 -115.156,-2.829 " opacity="0.15" />
                                                        </g>
                                                    </g>
                                                    <g transform="matrix(-2.54711e-06, -1, 1, -2.54711e-06, -93.6649, -62.6904)" >
                                                        <g >
                                                            <polygon enable-background="new    " points="-110.908,-4.543 -110.908,-5.332 -110.908,-5.332 " opacity="0.5"  fill="#FFFFFF"/>
                                                        </g>
                                                    </g>
                                                    <line y2="49.945" x1="-102.669" y1="49.945" x2="-102.669"  fill="none"/>
                                                </g>
                                            </g>
                                        </g>
                                    </g>
                                </g>
                            </g>
                        </g>
                    </g>
                    <rect enable-background="new    " x="-35.566" y="-16.424" height="0.085" width="1.702" opacity="0.1" />
                    <rect enable-background="new    " x="-35.566" y="-21.311" height="0.088" width="1.702" opacity="0.2"  fill="#FFFFFF"/>
                </g>
            </g>
        </g>
    </g>
    <rect x="24.335" y="19.08" height="12.073" width="9.001"  fill="#333333"/>
</svg>
