<?xml version="1.0" encoding="UTF-8" standalone="no"?>
<!-- Generator: Adobe Illustrator 15.1.0, SVG Export Plug-In . SVG Version: 6.00 Build 0)  -->

<svg
   xmlns:dc="http://purl.org/dc/elements/1.1/"
   xmlns:cc="http://creativecommons.org/ns#"
   xmlns:rdf="http://www.w3.org/1999/02/22-rdf-syntax-ns#"
   xmlns:svg="http://www.w3.org/2000/svg"
   xmlns="http://www.w3.org/2000/svg"
   xmlns:sodipodi="http://sodipodi.sourceforge.net/DTD/sodipodi-0.dtd"
   xmlns:inkscape="http://www.inkscape.org/namespaces/inkscape"
   id="Layer_1"
   enable-background="new 0 0 50.4 50.4"
   xml:space="preserve"
   x="0px"
   y="0px"
   viewBox="0 0 50.4 50.4"
   version="1.1"
   height="17.779999mm"
   gorn="0"
   width="17.779999mm"
   inkscape:version="0.91 r13725"
   sodipodi:docname="airQuality.svg"><metadata
     id="metadata4600"><rdf:RDF><cc:Work
         rdf:about=""><dc:format>image/svg+xml</dc:format><dc:type
           rdf:resource="http://purl.org/dc/dcmitype/StillImage" /><dc:title></dc:title></cc:Work></rdf:RDF></metadata><defs
     id="defs4598" /><sodipodi:namedview
     pagecolor="#ffffff"
     bordercolor="#666666"
     borderopacity="1"
     objecttolerance="10"
     gridtolerance="10"
     guidetolerance="10"
     inkscape:pageopacity="0"
     inkscape:pageshadow="2"
     inkscape:window-width="1348"
     inkscape:window-height="833"
     id="namedview4596"
     showgrid="false"
     units="mm"
     inkscape:document-units="mm"
     fit-margin-top="0"
     fit-margin-left="0"
     fit-margin-right="0"
     fit-margin-bottom="0"
     inkscape:zoom="4.37"
     inkscape:cx="31.499999"
     inkscape:cy="31.499998"
     inkscape:window-x="0"
     inkscape:window-y="0"
     inkscape:window-maximized="0"
     inkscape:current-layer="Layer_1" /><desc
     id="desc3989"><referenceFile>SparkFun_CSS811_Breakout_breadboard.svg</referenceFile></desc><desc
     id="desc3991">Fritzing breadboard generated by brd2svg</desc><g
     id="breadboard"
     gorn="0.1"><g
       id="icon"
       gorn="0.1.0"><path
         d="m 0,0 50.4,0 0,50.4 L 0,50.4 0,0 m 43.2,2.52 c -2.585,-10e-4 -4.681,2.094 -4.682,4.679 -10e-4,2.584 2.094,4.681 4.679,4.681 10e-4,0 0.002,0 0.003,0 2.585,0 4.68,-2.095 4.68,-4.68 0,-2.585 -2.095,-4.68 -4.68,-4.68 z m 0,36 c -2.585,0 -4.68,2.095 -4.68,4.68 0,2.585 2.095,4.68 4.68,4.68 2.585,0 4.68,-2.095 4.68,-4.68 0,-2.585 -2.095,-4.68 -4.68,-4.68 z M 3.6,16.56 c -0.796,-10e-4 -1.441,0.644 -1.441,1.438 -10e-4,0.795 0.644,1.44 1.438,1.441 10e-4,0 0.002,0 0.003,0 0.795,0 1.439,-0.645 1.439,-1.44 C 5.04,17.205 4.395,16.56 3.6,16.56 l 0,0 z m 0,-7.2 c -0.796,0 -1.44,0.645 -1.44,1.439 0,0.796 0.645,1.44 1.44,1.44 0.795,0 1.439,-0.645 1.439,-1.44 C 5.04,10.005 4.395,9.36 3.6,9.36 Z m 0,-7.2 c -0.796,0 -1.44,0.645 -1.441,1.439 0,0.795 0.645,1.44 1.439,1.44 0.001,0 0.001,0 0.002,0 C 4.395,5.04 5.04,4.395 5.04,3.6 5.04,2.804 4.395,2.16 3.6,2.16 Z m 0,43.2 c -0.796,0 -1.44,0.645 -1.44,1.439 0,0.796 0.645,1.44 1.44,1.44 0.795,0 1.439,-0.645 1.439,-1.44 C 5.04,46.005 4.395,45.36 3.6,45.36 l 0,0 z m 0,-7.2 c -0.796,0 -1.44,0.645 -1.44,1.44 0,0.795 0.645,1.439 1.44,1.439 0.795,0 1.439,-0.645 1.439,-1.439 C 5.04,38.804 4.395,38.16 3.6,38.16 l 0,0 z m 0,-7.2 c -0.796,0 -1.44,0.645 -1.44,1.44 0,0.795 0.645,1.439 1.44,1.439 0.795,0 1.439,-0.645 1.439,-1.439 C 5.04,31.604 4.395,30.96 3.6,30.96 l 0,0 z m 0,-7.2 c -0.796,0 -1.441,0.644 -1.441,1.439 -10e-4,0.795 0.644,1.44 1.438,1.441 10e-4,0 0.002,0 0.003,0 0.795,0 1.439,-0.646 1.439,-1.44 0,-0.794 -0.644,-1.44 -1.439,-1.44 l 0,0 z m 28.8,18.165 c -0.705,-10e-4 -1.276,0.569 -1.277,1.273 -0.001,0.705 0.569,1.276 1.274,1.277 0.001,0 0.002,0 0.003,0 0.704,10e-4 1.276,-0.569 1.277,-1.273 0,-0.705 -0.57,-1.276 -1.274,-1.277 -10e-4,0 -0.002,0 -0.003,0 z m -7.2,0 c -0.704,-10e-4 -1.276,0.569 -1.277,1.273 -10e-4,0.705 0.569,1.276 1.274,1.277 0.001,0 0.002,0 0.003,0 0.704,10e-4 1.276,-0.569 1.277,-1.273 0.001,-0.705 -0.569,-1.276 -1.274,-1.277 -10e-4,0 -0.002,0 -0.003,0 z"
         id="path3995"
         inkscape:connector-curvature="0"
         style="fill:#e6321e" /><g
         id="g3997"><title
           id="title3999">layer 21</title><g
           id="g4001"><title
             id="title4003">text:SCL</title><g
             transform="translate(25.2,42.48)"
             id="g4005"><g
               id="g4007"><g
                 transform="matrix(0,-1,1,0,0,0)"
                 id="g4009"><g
                   id="g4011"><g
                     transform="matrix(0,1,-1,0,16.28,-17.2803)"
                     id="g4013"><text
                       font-size="3.3408"
                       id="text4015"
                       style="font-size:3.34080005px;font-family:OCRA;fill:#ffffff">SCL</text>
</g></g></g></g></g></g><g
           id="g4017"><title
             id="title4019">text:SDA</title><g
             transform="translate(32.4,42.48)"
             id="g4021"><g
               id="g4023"><g
                 transform="matrix(0,-1,1,0,0,0)"
                 id="g4025"><g
                   id="g4027"><g
                     transform="matrix(0,1,-1,0,9.0798,-24.4803)"
                     id="g4029"><text
                       font-size="3.3408"
                       id="text4031"
                       style="font-size:3.34080005px;font-family:OCRA;fill:#ffffff">SDA</text>
</g></g></g></g></g></g><g
           id="g4033"><title
             id="title4035">text:3.3V</title><g
             transform="translate(39.6,42.48)"
             id="g4037"><g
               id="g4039"><g
                 transform="matrix(0,-1,1,0,0,0)"
                 id="g4041"><g
                   id="g4043"><g
                     transform="matrix(0,1,-1,0,1.8806,-31.6803)"
                     id="g4045"><text
                       font-size="3.3408"
                       id="text4047"
                       style="font-size:3.34080005px;font-family:OCRA;fill:#ffffff">3.3V</text>
</g></g></g></g></g></g><g
           id="g4049"><title
             id="title4051">text:GND</title><g
             transform="translate(46.8,42.48)"
             id="g4053"><g
               id="g4055"><g
                 transform="matrix(0,-1,1,0,0,0)"
                 id="g4057"><g
                   id="g4059"><g
                     transform="matrix(0,1,-1,0,-4.3196,-38.8803)"
                     id="g4061"><text
                       font-size="3.3408"
                       id="text4063"
                       style="font-size:3.34080005px;font-family:OCRA;fill:#ffffff">GND</text>
</g></g></g></g></g></g><g
           id="g4065"><title
             id="title4067">text:CCS811</title><g
             transform="matrix(0,1,-1,0,45.9246,15.9485)"
             id="g4069"><text
               font-size="3.9672"
               id="text4071"
               style="font-size:3.96720004px;font-family:OCRA;fill:#ffffff">CCS811</text>
</g></g><g
           id="g4073"><title
             id="title4075">text:NTC</title><g
             transform="translate(49.32,21.24)"
             id="g4077"><g
               id="g4079"><g
                 transform="matrix(0,-1,1,0,0,0)"
                 id="g4081"><g
                   id="g4083"><g
                     transform="matrix(0,1,-1,0,-28.0801,-20.1601)"
                     id="g4085"><text
                       font-size="3.3408"
                       id="text4087"
                       style="font-size:3.34080005px;font-family:OCRA;fill:#ffffff">NTC</text>
</g></g></g></g></g></g><g
           id="g4089"><title
             id="title4091">text:Air Quality</title><g
             transform="matrix(0,1,-1,0,42.6199,12.1848)"
             id="g4093"><text
               font-size="3.3408"
               id="text4095"
               style="font-size:3.34080005px;font-family:OCRA;fill:#ffffff">Air Quality</text>
</g></g><g
           id="g4097"><title
             id="title4099">text:!WAK</title><g
             transform="translate(18,42.48)"
             id="g4101"><g
               id="g4103"><g
                 transform="matrix(0,-1,1,0,0,0)"
                 id="g4105"><g
                   id="g4107"><g
                     transform="matrix(0,1,-1,0,23.4802,-11.0803)"
                     id="g4109"><text
                       font-size="3.3408"
                       id="text4111"
                       style="font-size:3.34080005px;font-family:OCRA;fill:#ffffff">!WAK</text>
</g></g></g></g></g></g><g
           id="g4113"><title
             id="title4115">text:!INT</title><g
             transform="translate(10.8,42.48)"
             id="g4117"><g
               id="g4119"><g
                 transform="matrix(0,-1,1,0,0,0)"
                 id="g4121"><g
                   id="g4123"><g
                     transform="matrix(0,1,-1,0,30.6804,-3.8803)"
                     id="g4125"><text
                       font-size="3.3408"
                       id="text4127"
                       style="font-size:3.34080005px;font-family:OCRA;fill:#ffffff">!INT</text>
</g></g></g></g></g></g><g
           id="g4129"><title
             id="title4131">text:!RST</title><g
             transform="translate(3.6,42.48)"
             id="g4133"><g
               id="g4135"><g
                 transform="matrix(0,-1,1,0,0,0)"
                 id="g4137"><g
                   id="g4139"><g
                     transform="matrix(0,1,-1,0,37.8806,3.3197)"
                     id="g4141"><text
                       font-size="3.3408"
                       id="text4143"
                       style="font-size:3.34080005px;font-family:OCRA;fill:#ffffff">!RST</text>
</g></g></g></g></g></g><g
           id="g4145"><title
             id="title4147">element:C2</title><g
             id="g4149"><title
               id="title4151">package:0603</title></g></g><g
           id="g4153"><title
             id="title4155">element:FD1</title><g
             id="g4157"><title
               id="title4159">package:FIDUCIAL-1X2</title></g></g><g
           id="g4161"><title
             id="title4163">element:FD2</title><g
             id="g4165"><title
               id="title4167">package:FIDUCIAL-1X2</title></g></g><g
           id="g4169"><title
             id="title4171">element:H2</title><g
             id="g4173"><title
               id="title4175">package:STAND-OFF</title></g></g><g
           id="g4177"><title
             id="title4179">element:H4</title><g
             id="g4181"><title
               id="title4183">package:STAND-OFF</title></g></g><g
           id="g4185"><title
             id="title4187">element:J2</title><g
             id="g4189"><title
               id="title4191">package:1X03_NO_SILK</title></g></g><g
           id="g4193"><title
             id="title4195">element:J8</title><g
             id="g4197"><title
               id="title4199">package:1X04_NO_SILK</title></g></g><g
           id="g4201"><title
             id="title4203">element:JP1</title><g
             id="g4205"><title
               id="title4207">package:SMT-JUMPER_3_2-NC_TRACE_SILK</title></g></g><g
           id="g4209"><title
             id="title4211">element:JP2</title><g
             id="g4213"><title
               id="title4215">package:SMT-JUMPER_2_NO_SILK</title></g></g><g
           id="g4217"><title
             id="title4219">element:LOGO1</title><g
             id="g4221"><title
               id="title4223">package:SFE_LOGO_FLAME_.2</title></g></g><g
           id="g4225"><title
             id="title4227">element:LOGO4</title><g
             id="g4229"><title
               id="title4231">package:OSHW-LOGO-S</title></g></g><g
           id="g4233"><title
             id="title4235">element:R1</title><g
             id="g4237"><title
               id="title4239">package:0603</title></g></g><g
           id="g4241"><title
             id="title4243">element:R2</title><g
             id="g4245"><title
               id="title4247">package:0603</title></g></g><g
           id="g4249"><title
             id="title4251">element:R6</title><g
             id="g4253"><title
               id="title4255">package:0603</title></g></g><g
           id="g4257"><title
             id="title4259">element:R10</title><g
             id="g4261"><title
               id="title4263">package:0603</title></g></g><g
           id="g4265"><title
             id="title4267">element:R12</title><g
             id="g4269"><title
               id="title4271">package:AXIAL-0.1</title><line
               y2="43.200001"
               x1="28.799999"
               y1="41.040001"
               x2="28.799999"
               id="line4273"
               style="fill:none;stroke:#ffffff;stroke-width:0.57599998;stroke-linecap:round" /><line
               y2="45.360001"
               x1="28.799999"
               y1="43.200001"
               x2="28.799999"
               id="line4275"
               style="fill:none;stroke:#ffffff;stroke-width:0.57599998;stroke-linecap:round" /><line
               y2="43.200001"
               x1="28.08"
               y1="43.200001"
               x2="28.799999"
               id="line4277"
               style="fill:none;stroke:#ffffff;stroke-width:0.57599998;stroke-linecap:round" /><line
               y2="43.200001"
               x1="28.799999"
               y1="43.200001"
               x2="29.52"
               id="line4279"
               style="fill:none;stroke:#ffffff;stroke-width:0.57599998;stroke-linecap:round" /></g></g><g
           id="g4281"><title
             id="title4283">element:R13</title><g
             id="g4285"><title
               id="title4287">package:0603</title></g></g><g
           id="g4289"><title
             id="title4291">element:R14</title><g
             id="g4293"><title
               id="title4295">package:0603</title></g></g><g
           id="g4297"><title
             id="title4299">element:U2</title><g
             id="g4301"><title
               id="title4303">package:LGA10</title><line
               y2="31.153"
               x1="24.264"
               y1="19.247"
               x2="24.264"
               id="line4305"
               style="fill:none;stroke:#ffffff;stroke-width:0.36000001;stroke-linecap:round" /><line
               y2="19.247"
               x1="33.335999"
               y1="19.247"
               x2="24.264"
               id="line4307"
               style="fill:none;stroke:#ffffff;stroke-width:0.36000001;stroke-linecap:round" /><line
               y2="19.247"
               x1="33.335999"
               y1="31.153"
               x2="33.335999"
               id="line4309"
               style="fill:none;stroke:#ffffff;stroke-width:0.36000001;stroke-linecap:round" /><line
               y2="31.153"
               x1="24.264"
               y1="31.153"
               x2="33.335999"
               id="line4311"
               style="fill:none;stroke:#ffffff;stroke-width:0.36000001;stroke-linecap:round" /><circle
               cx="23.698"
               r="0.72299999"
               cy="18.68"
               id="circle4313"
               style="fill:none" /></g></g></g><rect
         x="24.264"
         y="19.247"
         height="11.906"
         width="9.0710001"
         id="rect4315"
         style="fill:#ffffff;fill-opacity:0.15" /><circle
         id="connector4pin"
         cx="3.5999999"
         r="2.052"
         gorn="0.1.0.3"
         cy="18"
         style="fill:none;stroke:#9a916c;stroke-width:1.22399998" /><circle
         id="connector5pin"
         cx="3.5999999"
         r="2.052"
         gorn="0.1.0.4"
         cy="10.8"
         style="fill:none;stroke:#9a916c;stroke-width:1.22399998" /><circle
         id="connector6pin"
         cx="3.5999999"
         r="2.052"
         gorn="0.1.0.5"
         cy="3.5999999"
         style="fill:none;stroke:#9a916c;stroke-width:1.22399998" /><circle
         id="connector7pin"
         cx="3.5999999"
         r="2.052"
         gorn="0.1.0.6"
         cy="46.799999"
         style="fill:none;stroke:#9a916c;stroke-width:1.22399998" /><circle
         id="connector8pin"
         cx="3.5999999"
         r="2.052"
         gorn="0.1.0.7"
         cy="39.599998"
         style="fill:none;stroke:#9a916c;stroke-width:1.22399998" /><circle
         id="connector9pin"
         cx="3.5999999"
         r="2.052"
         gorn="0.1.0.8"
         cy="32.400002"
         style="fill:none;stroke:#9a916c;stroke-width:1.22399998" /><circle
         id="connector10pin"
         cx="3.5999999"
         r="2.052"
         gorn="0.1.0.9"
         cy="25.200001"
         style="fill:none;stroke:#9a916c;stroke-width:1.22399998" /><circle
         id="connector24pin"
         cx="32.400002"
         r="1.97"
         gorn="0.1.0.10"
         cy="43.200001"
         style="fill:none;stroke:#9a916c;stroke-width:1.38839996" /><circle
         id="connector25pin"
         cx="25.200001"
         r="1.97"
         gorn="0.1.0.11"
         cy="43.200001"
         style="fill:none;stroke:#9a916c;stroke-width:1.38839996" /></g></g><g
     transform="translate(28.431,63.611)"
     id="g4326"><g
       id="_x30_603-res_2_"
       gorn="0.2.0"><g
         transform="matrix(-1,0,0,-1,7.938,2.834)"
         id="g4329"><g
           id="g4331"><g
             id="g4333"><g
               id="g4335"><rect
                 x="3.586"
                 y="30.565001"
                 height="2.8340001"
                 width="7.9660001"
                 id="rect4337"
                 style="fill:#333333" /><rect
                 enable-background="new    "
                 x="3.586"
                 y="30.565001"
                 height="0.046"
                 width="7.9660001"
                 id="rect4339"
                 style="opacity:0.2;fill:#ffffff" /><rect
                 enable-background="new    "
                 x="3.586"
                 y="33.367001"
                 height="0.032000002"
                 width="7.9660001"
                 id="rect4341"
                 style="opacity:0.2" /></g><g
               id="g4343"><path
                 d="m 10.396,30.565 0,0 0,0 -0.094,0 0,0 c -0.08,0.251 -0.135,0.796 -0.135,1.075 0,0.291 0.049,1.41 0.135,1.673 l 0,0 0,0 1.223,0 0,-2.748 -1.129,0 z"
                 id="path4345"
                 inkscape:connector-curvature="0"
                 style="fill:#dcdcdc" /><path
                 d="m 4.831,30.671 0,-0.105 -1.222,0 0,2.748 1.224,0 c 0.088,-0.262 0.192,-1.377 0.192,-1.672 0,-0.345 -0.075,-0.67 -0.194,-0.971 z"
                 id="path4347"
                 inkscape:connector-curvature="0"
                 style="fill:#dcdcdc" /><path
                 d="m 11.532,33.421 -1.222,0 -0.008,-0.107 1.223,0 0.007,0.107 z"
                 id="path4349"
                 inkscape:connector-curvature="0"
                 style="fill:#999999" /><path
                 d="m 3.615,33.422 1.224,0 -0.008,-0.108 -1.222,0 0.006,0.108 z"
                 id="path4351"
                 inkscape:connector-curvature="0"
                 style="fill:#999999" /><rect
                 enable-background="new    "
                 x="3.609"
                 y="30.565001"
                 height="0.046"
                 width="1.224"
                 id="rect4353"
                 style="opacity:0.5;fill:#ffffff" /><rect
                 enable-background="new    "
                 x="10.304"
                 y="30.565001"
                 height="0.046"
                 width="1.224"
                 id="rect4355"
                 style="opacity:0.5;fill:#ffffff" /><line
                 y2="33.398998"
                 x1="4.349"
                 y1="33.398998"
                 x2="4.349"
                 id="line4357"
                 style="fill:none" /></g></g></g></g></g></g><g
     transform="translate(28.431,63.611)"
     id="g4359"><g
       id="_x30_603-res_1_"
       gorn="0.3.0"><g
         transform="matrix(-1,0,0,-1,7.938,2.834)"
         id="g4362"><g
           id="g4364"><g
             id="g4366"><g
               id="g4368"><rect
                 x="3.586"
                 y="50"
                 height="2.8340001"
                 width="7.9660001"
                 id="rect4370"
                 style="fill:#333333" /><rect
                 enable-background="new    "
                 x="3.586"
                 y="50"
                 height="0.046"
                 width="7.9660001"
                 id="rect4372"
                 style="opacity:0.2;fill:#ffffff" /><rect
                 enable-background="new    "
                 x="3.586"
                 y="52.801998"
                 height="0.032000002"
                 width="7.9660001"
                 id="rect4374"
                 style="opacity:0.2" /></g><g
               id="g4376"><path
                 d="m 10.396,50 0,0 0,0 -0.094,0 0,0 c -0.08,0.251 -0.135,0.796 -0.135,1.075 0,0.291 0.049,1.41 0.135,1.673 l 0,0 0,0 1.223,0 0,-2.748 -1.129,0 z"
                 id="path4378"
                 inkscape:connector-curvature="0"
                 style="fill:#dcdcdc" /><path
                 d="m 4.831,50.105 0,-0.105 -1.222,0 0,2.748 1.224,0 c 0.088,-0.262 0.192,-1.377 0.192,-1.672 0,-0.345 -0.075,-0.67 -0.194,-0.971 z"
                 id="path4380"
                 inkscape:connector-curvature="0"
                 style="fill:#dcdcdc" /><path
                 d="m 11.532,52.855 -1.222,0 -0.008,-0.107 1.223,0 0.007,0.107 z"
                 id="path4382"
                 inkscape:connector-curvature="0"
                 style="fill:#999999" /><path
                 d="m 3.615,52.856 1.224,0 -0.008,-0.108 -1.222,0 0.006,0.108 z"
                 id="path4384"
                 inkscape:connector-curvature="0"
                 style="fill:#999999" /><rect
                 enable-background="new    "
                 x="3.609"
                 y="50"
                 height="0.046"
                 width="1.224"
                 id="rect4386"
                 style="opacity:0.5;fill:#ffffff" /><rect
                 enable-background="new    "
                 x="10.304"
                 y="50"
                 height="0.046"
                 width="1.224"
                 id="rect4388"
                 style="opacity:0.5;fill:#ffffff" /><line
                 y2="52.834"
                 x1="4.349"
                 y1="52.834"
                 x2="4.349"
                 id="line4390"
                 style="fill:none" /></g></g></g></g></g></g><g
     transform="translate(28.431,63.611)"
     id="g4392"><g
       id="_x30_603-res_3_"
       gorn="0.4.0"><g
         transform="matrix(-1,0,0,-1,7.938,2.834)"
         id="g4395"><g
           id="g4397"><g
             id="g4399"><g
               id="g4401"><rect
                 x="8.8979998"
                 y="55.645"
                 height="7.9660001"
                 width="2.8340001"
                 id="rect4403"
                 style="fill:#333333" /><rect
                 enable-background="new    "
                 x="11.686"
                 y="55.645"
                 height="7.9660001"
                 width="0.046"
                 id="rect4405"
                 style="opacity:0.2;fill:#ffffff" /><rect
                 enable-background="new    "
                 x="8.8979998"
                 y="55.645"
                 height="7.9660001"
                 width="0.032000002"
                 id="rect4407"
                 style="opacity:0.2" /></g><g
               id="g4409"><path
                 d="m 11.732,62.455 0,0 0,0 0,-0.093 0,0 c -0.251,-0.08 -0.796,-0.136 -1.075,-0.136 -0.291,0 -1.41,0.049 -1.673,0.136 l 0,0 0,0 0,1.222 2.748,0 0,-1.129 z"
                 id="path4411"
                 inkscape:connector-curvature="0"
                 style="fill:#dcdcdc" /><path
                 d="m 11.626,56.891 0.105,0 0,-1.222 -2.747,0 0,1.223 c 0.262,0.088 1.377,0.193 1.672,0.193 0.344,0 0.669,-0.075 0.97,-0.194 z"
                 id="path4413"
                 inkscape:connector-curvature="0"
                 style="fill:#dcdcdc" /><path
                 d="m 8.876,63.592 0,-1.223 0.107,-0.007 0,1.222 -0.107,0.008 z"
                 id="path4415"
                 inkscape:connector-curvature="0"
                 style="fill:#999999" /><path
                 d="m 8.875,55.675 0,1.224 0.108,-0.008 0,-1.222 -0.108,0.006 z"
                 id="path4417"
                 inkscape:connector-curvature="0"
                 style="fill:#999999" /><rect
                 enable-background="new    "
                 x="11.686"
                 y="55.668999"
                 height="1.223"
                 width="0.046"
                 id="rect4419"
                 style="opacity:0.5;fill:#ffffff" /><rect
                 enable-background="new    "
                 x="11.686"
                 y="62.362999"
                 height="1.224"
                 width="0.046"
                 id="rect4421"
                 style="opacity:0.5;fill:#ffffff" /><line
                 y2="56.408001"
                 x1="8.8979998"
                 y1="56.408001"
                 x2="8.8979998"
                 id="line4423"
                 style="fill:none" /></g></g></g></g></g></g><g
     transform="translate(28.431,63.611)"
     id="g4425"><g
       id="_x30_603-res_4_"
       gorn="0.5.0"><g
         transform="matrix(-1,0,0,-1,7.938,2.834)"
         id="g4428"><g
           id="g4430"><g
             id="g4432"><g
               id="g4434"><rect
                 x="2.181"
                 y="55.645"
                 height="7.967"
                 width="2.8340001"
                 id="rect4436"
                 style="fill:#333333" /><rect
                 enable-background="new    "
                 x="4.9689999"
                 y="55.645"
                 height="7.967"
                 width="0.046"
                 id="rect4438"
                 style="opacity:0.2;fill:#ffffff" /><rect
                 enable-background="new    "
                 x="2.181"
                 y="55.645"
                 height="7.967"
                 width="0.032000002"
                 id="rect4440"
                 style="opacity:0.2" /></g><g
               id="g4442"><path
                 d="m 5.015,62.455 0,0 0,0 0,-0.093 0,0 C 4.764,62.282 4.219,62.226 3.94,62.226 c -0.291,0 -1.41,0.049 -1.673,0.136 l 0,0 0,0 0,1.223 2.748,0 0,-1.13 z"
                 id="path4444"
                 inkscape:connector-curvature="0"
                 style="fill:#dcdcdc" /><path
                 d="m 4.909,56.891 0.105,0 0,-1.222 -2.747,0 0,1.223 c 0.262,0.088 1.377,0.193 1.672,0.193 0.344,0 0.67,-0.075 0.97,-0.194 z"
                 id="path4446"
                 inkscape:connector-curvature="0"
                 style="fill:#dcdcdc" /><path
                 d="m 2.159,63.592 0,-1.223 0.107,-0.007 0,1.223 -0.107,0.007 z"
                 id="path4448"
                 inkscape:connector-curvature="0"
                 style="fill:#999999" /><path
                 d="m 2.158,55.675 0,1.224 0.108,-0.008 0,-1.222 -0.108,0.006 z"
                 id="path4450"
                 inkscape:connector-curvature="0"
                 style="fill:#999999" /><rect
                 enable-background="new    "
                 x="4.9689999"
                 y="55.668999"
                 height="1.223"
                 width="0.046"
                 id="rect4452"
                 style="opacity:0.5;fill:#ffffff" /><rect
                 enable-background="new    "
                 x="4.9689999"
                 y="62.362999"
                 height="1.224"
                 width="0.046"
                 id="rect4454"
                 style="opacity:0.5;fill:#ffffff" /><line
                 y2="56.408001"
                 x1="2.181"
                 y1="56.408001"
                 x2="2.181"
                 id="line4456"
                 style="fill:none" /></g></g></g></g></g></g><g
     transform="translate(28.431,63.611)"
     id="g4458"><g
       id="_x30_603-res_5_"
       gorn="0.6.0"><g
         transform="matrix(-1,0,0,-1,7.938,2.834)"
         id="g4461"><g
           id="g4463"><g
             id="g4465"><g
               id="g4467"><rect
                 x="15.023"
                 y="43.058998"
                 height="7.967"
                 width="2.8340001"
                 id="rect4469"
                 style="fill:#333333" /><rect
                 enable-background="new    "
                 x="17.811001"
                 y="43.058998"
                 height="7.967"
                 width="0.046"
                 id="rect4471"
                 style="opacity:0.2;fill:#ffffff" /><rect
                 enable-background="new    "
                 x="15.023"
                 y="43.058998"
                 height="7.967"
                 width="0.032000002"
                 id="rect4473"
                 style="opacity:0.2" /></g><g
               id="g4475"><path
                 d="m 17.857,49.868 0,0 0,0 0,-0.093 0,0 c -0.251,-0.08 -0.796,-0.136 -1.075,-0.136 -0.291,0 -1.41,0.049 -1.673,0.136 l 0,0 0,0 0,1.223 2.748,0 0,-1.13 z"
                 id="path4477"
                 inkscape:connector-curvature="0"
                 style="fill:#dcdcdc" /><path
                 d="m 17.751,44.304 0.105,0 0,-1.222 -2.748,0 0,1.223 c 0.262,0.088 1.377,0.193 1.672,0.193 0.345,0 0.67,-0.075 0.971,-0.194 z"
                 id="path4479"
                 inkscape:connector-curvature="0"
                 style="fill:#dcdcdc" /><path
                 d="m 15.001,51.005 0,-1.223 0.107,-0.007 0,1.223 -0.107,0.007 z"
                 id="path4481"
                 inkscape:connector-curvature="0"
                 style="fill:#999999" /><path
                 d="m 15,43.088 0,1.224 0.108,-0.008 0,-1.222 L 15,43.088 Z"
                 id="path4483"
                 inkscape:connector-curvature="0"
                 style="fill:#999999" /><rect
                 enable-background="new    "
                 x="17.811001"
                 y="43.082001"
                 height="1.223"
                 width="0.046"
                 id="rect4485"
                 style="opacity:0.5;fill:#ffffff" /><rect
                 enable-background="new    "
                 x="17.811001"
                 y="49.776001"
                 height="1.224"
                 width="0.046"
                 id="rect4487"
                 style="opacity:0.5;fill:#ffffff" /><line
                 y2="43.820999"
                 x1="15.023"
                 y1="43.820999"
                 x2="15.023"
                 id="line4489"
                 style="fill:none" /></g></g></g></g></g></g><g
     transform="translate(28.431,63.611)"
     id="g4491"><g
       id="_x30_603-res_6_"
       gorn="0.7.0"><g
         transform="matrix(-1,0,0,-1,7.938,2.834)"
         id="g4494"><g
           id="g4496"><g
             id="g4498"><g
               id="g4500"><rect
                 x="15.034"
                 y="33.278"
                 height="7.967"
                 width="2.8340001"
                 id="rect4502"
                 style="fill:#333333" /><rect
                 enable-background="new    "
                 x="17.822001"
                 y="33.278"
                 height="7.967"
                 width="0.046"
                 id="rect4504"
                 style="opacity:0.2;fill:#ffffff" /><rect
                 enable-background="new    "
                 x="15.034"
                 y="33.278"
                 height="7.967"
                 width="0.032000002"
                 id="rect4506"
                 style="opacity:0.2" /></g><g
               id="g4508"><path
                 d="m 17.868,40.088 0,0 0,0 0,-0.093 0,0 c -0.251,-0.08 -0.796,-0.136 -1.075,-0.136 -0.291,0 -1.41,0.049 -1.673,0.136 l 0,0 0,0 0,1.223 2.748,0 0,-1.13 z"
                 id="path4510"
                 inkscape:connector-curvature="0"
                 style="fill:#dcdcdc" /><path
                 d="m 17.762,34.523 0.105,0 0,-1.222 -2.747,0 0,1.223 c 0.262,0.088 1.377,0.193 1.672,0.193 0.344,0.001 0.67,-0.074 0.97,-0.194 z"
                 id="path4512"
                 inkscape:connector-curvature="0"
                 style="fill:#dcdcdc" /><path
                 d="m 15.012,41.225 0,-1.223 0.107,-0.007 0,1.223 -0.107,0.007 z"
                 id="path4514"
                 inkscape:connector-curvature="0"
                 style="fill:#999999" /><path
                 d="m 15.011,33.308 0,1.224 0.108,-0.008 0,-1.222 -0.108,0.006 z"
                 id="path4516"
                 inkscape:connector-curvature="0"
                 style="fill:#999999" /><rect
                 enable-background="new    "
                 x="17.822001"
                 y="33.301998"
                 height="1.223"
                 width="0.046"
                 id="rect4518"
                 style="opacity:0.5;fill:#ffffff" /><rect
                 enable-background="new    "
                 x="17.822001"
                 y="39.995998"
                 height="1.224"
                 width="0.046"
                 id="rect4520"
                 style="opacity:0.5;fill:#ffffff" /><line
                 y2="34.041"
                 x1="15.034"
                 y1="34.041"
                 x2="15.034"
                 id="line4522"
                 style="fill:none" /></g></g></g></g></g></g><g
     id="_x30_402-res_5_"
     gorn="0.8"><g
       transform="matrix(-1,0,0,-1,2.559,5.67)"
       id="g4525"><g
         id="g4527"><g
           id="g4529"><g
             transform="translate(10.275,83.3789)"
             id="g4531"><g
               id="g4533"><g
                 id="_x30_402-res_6_"
                 gorn="0.8.0.0.0.0.0.0"><g
                   transform="matrix(0,1,-1,0,4.1105,-1.5595)"
                   id="g4536"><g
                     id="g4538"><g
                       id="g4540"><g
                         id="g4542"><g
                           id="g4544"><g
                             transform="matrix(-2.54711e-6,-1,1,-2.54711e-6,-92.5375,-66.3468)"
                             id="g4546"><g
                               id="g4548"><rect
                                 x="-116.318"
                                 y="-10.61"
                                 height="4.9770002"
                                 width="1.771"
                                 id="rect4550"
                                 style="fill:#9f5b00" /></g></g><g
                             transform="matrix(-2.54711e-6,-1,1,-2.54711e-6,-93.8052,-67.6143)"
                             id="g4552"><g
                               id="g4554"><polygon
                                 enable-background="new    "
                                 points="-117.561,-9.401 -117.561,-4.427 -117.561,-9.401 "
                                 id="polygon4556"
                                 style="opacity:0.2" /></g></g></g><g
                           id="g4558"><path
                             d="m -98.868,48.2 0,0 0,0 0,0 c 0.01,0.283 -0.013,1.592 0.01,1.771 l 0.689,0 0,-1.771 -0.699,0 z"
                             id="path4560"
                             inkscape:connector-curvature="0"
                             style="fill:#cccccc" /><path
                             d="m -102.39,48.232 -0.805,-0.03 0,1.771 0.781,0 c 0.054,-0.21 0.024,-1.741 0.024,-1.741 z"
                             id="path4562"
                             inkscape:connector-curvature="0"
                             style="fill:#cccccc" /><g
                             transform="matrix(-2.54711e-6,-1,1,-2.54711e-6,-91.409,-70.0021)"
                             id="g4564"><g
                               id="g4566"><polygon
                                 enable-background="new    "
                                 points="-119.953,-11.788 -119.953,-10.999 -119.953,-11.788 "
                                 id="polygon4568"
                                 style="opacity:0.15" /></g></g><g
                             transform="matrix(-2.54711e-6,-1,1,-2.54711e-6,-88.8815,-67.4752)"
                             id="g4570"><g
                               id="g4572"><polygon
                                 enable-background="new    "
                                 points="-115.704,-14.29 -115.704,-13.503 -115.704,-14.29 "
                                 id="polygon4574"
                                 style="opacity:0.5;fill:#ffffff" /></g></g><g
                             transform="matrix(-2.54711e-6,-1,1,-2.54711e-6,-96.1915,-65.2182)"
                             id="g4576"><g
                               id="g4578"><polygon
                                 enable-background="new    "
                                 points="-115.156,-2.829 -115.156,-2.045 -115.156,-2.829 "
                                 id="polygon4580"
                                 style="opacity:0.15" /></g></g><g
                             transform="matrix(-2.54711e-6,-1,1,-2.54711e-6,-93.6649,-62.6904)"
                             id="g4582"><g
                               id="g4584"><polygon
                                 enable-background="new    "
                                 points="-110.908,-5.332 -110.908,-4.543 -110.908,-5.332 "
                                 id="polygon4586"
                                 style="opacity:0.5;fill:#ffffff" /></g></g><line
                             y2="49.945"
                             x1="-102.669"
                             y1="49.945"
                             x2="-102.669"
                             id="line4588"
                             style="fill:none" /></g></g></g></g></g></g></g></g><rect
             enable-background="new    "
             x="-35.566002"
             y="-16.424"
             height="0.085000001"
             width="1.702"
             id="rect4590"
             style="opacity:0.1" /><rect
             enable-background="new    "
             x="-35.566002"
             y="-21.311001"
             height="0.088"
             width="1.702"
             id="rect4592"
             style="opacity:0.2;fill:#ffffff" /></g></g></g></g><rect
     x="24.334999"
     y="19.08"
     height="12.073"
     width="9.0010004"
     id="rect4594"
     style="fill:#333333" /></svg>